<?xml version="1.0" encoding="UTF-8"?>
<svg width="400" height="220" viewBox="0 0 400 220" fill="none" xmlns="http://www.w3.org/2000/svg">
  <rect width="400" height="220" rx="18" fill="url(#backgroundGradient)"/>
  <path d="M40 150H360" stroke="#FFC85A" stroke-width="6" stroke-linecap="round" opacity="0.45"/>
  <g filter="url(#panelShadow)">
    <rect x="68" y="60" width="180" height="110" rx="12" fill="url(#panelGradient)"/>
  </g>
  <rect x="76" y="68" width="164" height="94" rx="8" fill="#0E3A75"/>
  <g stroke="#1C76D5" stroke-width="2.6">
    <path d="M76 104H240" opacity="0.9"/>
    <path d="M76 136H240" opacity="0.7"/>
    <path d="M104 68V162" opacity="0.8"/>
    <path d="M168 68V162" opacity="0.8"/>
  </g>
  <g opacity="0.5">
    <rect x="248" y="88" width="32" height="64" rx="6" fill="#1559B2"/>
    <rect x="288" y="104" width="26" height="48" rx="5" fill="#1559B2"/>
    <rect x="322" y="120" width="20" height="36" rx="5" fill="#1559B2"/>
  </g>
  <circle cx="110" cy="36" r="22" fill="url(#sunGradient)"/>
  <g opacity="0.75" stroke="#FFD467" stroke-width="3">
    <path d="M110 5V20"/>
    <path d="M110 52V67"/>
    <path d="M79 36H94"/>
    <path d="M126 36H141"/>
    <path d="M90 16L101 27"/>
    <path d="M119 45L130 56"/>
    <path d="M90 56L101 45"/>
    <path d="M119 27L130 16"/>
  </g>
  <text x="72" y="190" fill="#FFF" font-size="18" font-weight="600" font-family="'Segoe UI', Arial" opacity="0.9">São Paulo Rooftop Cluster</text>
  <text x="72" y="208" fill="#FFF4D6" font-size="13" font-family="'Segoe UI', Arial" opacity="0.85">High-rise buildings capturing afternoon sun</text>
  <defs>
    <linearGradient id="backgroundGradient" x1="0" y1="0" x2="400" y2="220" gradientUnits="userSpaceOnUse">
      <stop stop-color="#203A43"/>
      <stop offset="1" stop-color="#2C5364"/>
    </linearGradient>
    <linearGradient id="panelGradient" x1="68" y1="60" x2="248" y2="170" gradientUnits="userSpaceOnUse">
      <stop stop-color="#1E63D6"/>
      <stop offset="1" stop-color="#0C3370"/>
    </linearGradient>
    <linearGradient id="sunGradient" x1="88" y1="14" x2="130" y2="50" gradientUnits="userSpaceOnUse">
      <stop stop-color="#FFE08A"/>
      <stop offset="1" stop-color="#FFB347"/>
    </linearGradient>
    <filter id="panelShadow" x="58" y="52" width="200" height="134" filterUnits="userSpaceOnUse" color-interpolation-filters="sRGB">
      <feFlood flood-opacity="0" result="BackgroundImageFix"/>
      <feOffset dy="6"/>
      <feGaussianBlur stdDeviation="6"/>
      <feComposite in2="SourceAlpha" operator="in" result="effect1_dropShadow"/>
      <feBlend in="SourceGraphic" in2="effect1_dropShadow" result="shape"/>
    </filter>
  </defs>
</svg>
