<?xml version="1.0" encoding="UTF-8"?>
<svg width="400" height="220" viewBox="0 0 400 220" fill="none" xmlns="http://www.w3.org/2000/svg">
  <rect width="400" height="220" rx="18" fill="url(#backgroundGradientFortaleza)"/>
  <path d="M30 160C80 150 120 150 170 160C220 170 260 170 310 160C340 154 360 160 370 170" stroke="#FFCF66" stroke-width="5" stroke-linecap="round" opacity="0.35"/>
  <g filter="url(#panelShadowFortaleza)">
    <rect x="60" y="54" width="210" height="118" rx="14" fill="url(#panelGradientFortaleza)"/>
  </g>
  <rect x="70" y="64" width="190" height="98" rx="10" fill="#063A72"/>
  <g stroke="#0F5DA8" stroke-width="2.4">
    <path d="M70 96H260" opacity="0.8"/>
    <path d="M70 126H260" opacity="0.7"/>
    <path d="M118 64V162" opacity="0.9"/>
    <path d="M168 64V162" opacity="0.9"/>
    <path d="M218 64V162" opacity="0.9"/>
  </g>
  <g opacity="0.55">
    <rect x="282" y="84" width="30" height="60" rx="6" fill="#063A72" stroke="#0F5DA8" stroke-width="2"/>
    <circle cx="297" cy="150" r="10" fill="#FFD35B"/>
    <path d="M295 156L300 165" stroke="#FFD35B" stroke-width="3" stroke-linecap="round" opacity="0.7"/>
  </g>
  <g>
    <circle cx="330" cy="58" r="16" fill="url(#sunGradientFortaleza)"/>
    <path d="M330 30V38" stroke="#FFE07A" stroke-width="2.6" stroke-linecap="round"/>
    <path d="M330 78V86" stroke="#FFE07A" stroke-width="2.6" stroke-linecap="round"/>
    <path d="M302 58H310" stroke="#FFE07A" stroke-width="2.6" stroke-linecap="round"/>
    <path d="M350 58H358" stroke="#FFE07A" stroke-width="2.6" stroke-linecap="round"/>
    <path d="M309 37L316 44" stroke="#FFE07A" stroke-width="2.6" stroke-linecap="round"/>
    <path d="M344 71L351 78" stroke="#FFE07A" stroke-width="2.6" stroke-linecap="round"/>
    <path d="M309 79L316 72" stroke="#FFE07A" stroke-width="2.6" stroke-linecap="round"/>
    <path d="M344 45L351 38" stroke="#FFE07A" stroke-width="2.6" stroke-linecap="round"/>
  </g>
  <text x="72" y="188" fill="#FFFFFF" font-size="18" font-weight="600" font-family="'Segoe UI', Arial" opacity="0.92">Fortaleza Coastline Array</text>
  <text x="72" y="206" fill="#FFEDCF" font-size="13" font-family="'Segoe UI', Arial" opacity="0.84">Harnessing sea breeze with cooling effect</text>
  <defs>
    <linearGradient id="backgroundGradientFortaleza" x1="12" y1="10" x2="378" y2="210" gradientUnits="userSpaceOnUse">
      <stop stop-color="#004E92"/>
      <stop offset="1" stop-color="#000428"/>
    </linearGradient>
    <linearGradient id="panelGradientFortaleza" x1="60" y1="54" x2="270" y2="172" gradientUnits="userSpaceOnUse">
      <stop stop-color="#0F6AD1"/>
      <stop offset="1" stop-color="#062457"/>
    </linearGradient>
    <linearGradient id="sunGradientFortaleza" x1="314" y1="42" x2="342" y2="70" gradientUnits="userSpaceOnUse">
      <stop stop-color="#FFE08A"/>
      <stop offset="1" stop-color="#FFB347"/>
    </linearGradient>
    <filter id="panelShadowFortaleza" x="48" y="46" width="234" height="142" filterUnits="userSpaceOnUse" color-interpolation-filters="sRGB">
      <feFlood flood-opacity="0" result="BackgroundImageFix"/>
      <feOffset dy="8"/>
      <feGaussianBlur stdDeviation="8"/>
      <feComposite in2="SourceAlpha" operator="in" result="effect1_dropShadow"/>
      <feBlend in="SourceGraphic" in2="effect1_dropShadow" result="shape"/>
    </filter>
  </defs>
</svg>
